HIERARCHY
ROOT Hips
{
	OFFSET 0.000000 0.000000 0.000000
	CHANNELS 6 Xposition Yposition Zposition Zrotation Yrotation Xrotation 
	JOINT LowerBack
	{
		OFFSET 0.000000 0.000000 0.000000
		CHANNELS 3 Zrotation Yrotation Xrotation
		JOINT Spine
		{
			OFFSET 0.028270 2.035590 -0.193380
			CHANNELS 3 Zrotation Yrotation Xrotation
			JOINT Spine1
			{
				OFFSET 0.056720 2.048850 -0.042750
				CHANNELS 3 Zrotation Yrotation Xrotation
				JOINT Neck
				{
					OFFSET 0.000000 0.000000 0.000000
					CHANNELS 3 Zrotation Yrotation Xrotation
					JOINT Neck1
					{
						OFFSET -0.054170 1.746240 0.172020
						CHANNELS 3 Zrotation Yrotation Xrotation
						JOINT Head
						{
							OFFSET 0.104070 1.761360 -0.123970
							CHANNELS 3 Zrotation Yrotation Xrotation
							End Site
							{
								OFFSET 0.000000 0.000000 0.000000
							}
						}
					}
				}
				JOINT LeftShoulder
				{
					OFFSET 0.000000 0.000000 0.000000
					CHANNELS 3 Zrotation Yrotation Xrotation
					JOINT LeftArm
					{
						OFFSET 3.362410 1.200890 -0.311210
						CHANNELS 3 Zrotation Yrotation Xrotation
						JOINT LeftForeArm
						{
							OFFSET 4.983000 -0.000000 -0.000000
							CHANNELS 3 Zrotation Yrotation Xrotation
							JOINT LeftHand
							{
								OFFSET 3.483560 -0.000000 -0.000000
								CHANNELS 3 Zrotation Yrotation Xrotation
								JOINT LeftFingerBase
								{
									OFFSET 0.000000 0.000000 0.000000
									CHANNELS 3 Zrotation Yrotation Xrotation
									JOINT LeftHandIndex1
									{
										OFFSET 0.715260 -0.000000 -0.000000
										CHANNELS 3 Zrotation Yrotation Xrotation
										End Site
										{
											OFFSET 0.000000 0.000000 0.000000
										}
									}
								}
								JOINT LThumb
								{
									OFFSET 0.000000 0.000000 0.000000
									CHANNELS 3 Zrotation Yrotation Xrotation
									End Site
									{
										OFFSET 0.000000 0.000000 0.000000
									}
								}
							}
						}
					}
				}
				JOINT RightShoulder
				{
					OFFSET 0.000000 0.000000 0.000000
					CHANNELS 3 Zrotation Yrotation Xrotation
					JOINT RightArm
					{
						OFFSET -3.136600 1.374050 -0.404650
						CHANNELS 3 Zrotation Yrotation Xrotation
						JOINT RightForeArm
						{
							OFFSET -5.241900 -0.000000 -0.000000
							CHANNELS 3 Zrotation Yrotation Xrotation
							JOINT RightHand
							{
								OFFSET -3.444170 -0.000000 -0.000000
								CHANNELS 3 Zrotation Yrotation Xrotation
								JOINT RightFingerBase
								{
									OFFSET 0.000000 0.000000 0.000000
									CHANNELS 3 Zrotation Yrotation Xrotation
									JOINT RightHandIndex1
									{
										OFFSET -0.622530 -0.000000 -0.000000
										CHANNELS 3 Zrotation Yrotation Xrotation
										End Site
										{
											OFFSET 0.000000 0.000000 0.000000
										}
									}
								}
								JOINT RThumb
								{
									OFFSET 0.000000 0.000000 0.000000
									CHANNELS 3 Zrotation Yrotation Xrotation
									End Site
									{
										OFFSET 0.000000 0.000000 0.000000
									}
								}
							}
						}
					}
				}
			}
		}
	}
}
}
MOTION
Frames: 6
Frame Time: 0.008333
0.788241 17.004598 0.138663 137.043533 86.388922 136.753651 0.887663 -6.046707 -0.947784 -0.097035 -6.216002 -2.254466 -5.375525 -6.164876 3.311776 9.257822 -20.438098 -10.848631 -2.170654 -0.121098 -0.785440 0.000000 0.000000 0.000000 1.674314 14.503703 1.460132 -36.998927 6.107868 1.449551 -2.675906 -45.727739 0.000513 0.730358 0.331041 0.003242 -0.159347 0.066836 0.000000 0.000000 0.000000 0.000000 0.000000 0.000000 0.000000 15.042199 -19.736708 -0.054168 78.513304 -19.759047 -8.096384 4.786537 16.713279 -0.003332 9.269000 0.107036 0.006929 0.068398 0.023044 -0.000000 0.000000 0.000000 0.000000 0.000000 0.000000 0.000000 
0.952864 16.995336 0.195373 133.851967 86.851097 133.491872 1.066336 -5.961097 -0.803898 -0.075219 -6.133896 -2.246277 -5.413082 -6.084908 3.256722 9.365822 -20.282938 -10.852061 -2.187096 -0.122756 -0.786933 0.000000 0.000000 0.000000 1.839807 14.438019 1.432963 -37.912436 6.983253 1.638975 -2.711042 -45.562492 0.000399 0.653742 0.422343 0.003735 -0.160262 0.060338 0.000000 0.000000 0.000000 0.000000 0.000000 0.000000 0.000000 15.107623 -19.485605 -0.029269 78.078421 -18.630123 -7.917017 4.754599 16.609418 -0.002978 9.059878 0.050222 0.002438 0.069478 0.021025 -0.000000 0.000000 0.000000 0.000000 0.000000 0.000000 0.000000 
1.113301 16.984668 0.252971 129.095547 87.276308 128.685780 1.196676 -5.889062 -0.645354 -0.062060 -6.061433 -2.234674 -5.449176 -6.014554 3.199023 9.477709 -20.116706 -10.855169 -2.202553 -0.124288 -0.788636 0.000000 0.000000 0.000000 1.998527 14.372260 1.410888 -38.836003 7.890131 1.874026 -2.748878 -45.366605 0.000268 0.585227 0.510211 0.004125 -0.161276 0.053505 0.000000 0.000000 0.000000 0.000000 0.000000 0.000000 0.000000 15.170793 -19.225133 -0.006458 77.641049 -17.447886 -7.603059 4.713768 16.650241 -0.002536 8.849881 0.034768 0.001349 0.070280 0.018669 -0.000000 0.000000 0.000000 0.000000 0.000000 0.000000 0.000000 
1.270334 16.973295 0.311409 122.412172 87.631956 121.974402 1.270437 -5.835319 -0.483148 -0.057991 -6.003265 -2.221122 -5.481090 -5.958495 3.140964 9.588142 -19.956494 -10.855207 -2.217043 -0.125758 -0.789700 0.000000 0.000000 0.000000 2.135452 14.303915 1.392063 -39.759028 8.827702 2.163129 -2.789710 -45.137425 0.000135 0.516208 0.592107 0.004315 -0.162294 0.046199 0.000000 0.000000 0.000000 0.000000 0.000000 0.000000 0.000000 15.231197 -18.977235 0.010926 77.185045 -16.212360 -7.079139 4.663043 16.833312 -0.001979 8.625852 0.083411 0.005163 0.070851 0.016017 -0.000000 0.000000 0.000000 0.000000 0.000000 0.000000 0.000000 
1.424777 16.962085 0.370616 113.511674 87.878965 113.066964 1.272883 -5.801688 -0.327141 -0.065750 -5.961047 -2.207181 -5.508502 -5.918307 3.083407 9.693358 -19.796571 -10.846525 -2.233303 -0.127500 -0.788540 0.000000 0.000000 0.000000 2.241884 14.237803 1.375125 -40.674894 9.781898 2.514397 -2.834607 -44.861938 0.000015 0.439330 0.665518 0.004402 -0.163273 0.038311 0.000000 0.000000 0.000000 0.000000 0.000000 0.000000 0.000000 15.296137 -18.738212 0.018892 76.705189 -14.941879 -6.375074 4.603876 17.159040 -0.001303 8.394475 0.200131 0.013779 0.071174 0.013048 -0.000000 0.000000 0.000000 0.000000 0.000000 0.000000 0.000000 
1.577363 16.951870 0.430480 102.414506 87.976109 101.983587 1.184378 -5.782969 -0.186832 -0.089925 -5.929324 -2.194491 -5.531568 -5.888423 3.027368 9.791372 -19.629173 -10.823931 -2.253770 -0.129808 -0.783690 0.000000 0.000000 0.000000 2.314415 14.184389 1.357928 -41.583943 10.732671 2.929336 -2.884808 -44.520487 -0.000092 0.347425 0.728683 0.004189 -0.164178 0.029775 0.000000 0.000000 0.000000 0.000000 0.000000 0.000000 0.000000 15.373278 -18.498891 0.014492 76.195939 -13.654783 -5.523726 4.537543 17.625063 -0.000511 8.160444 0.385200 0.026798 0.071243 0.009733 -0.000000 0.000000 0.000000 0.000000 0.000000 0.000000 0.000000 
